PathFileType	4	(X/Y/Z)	./resultDataOpenSim/trcMotMarkerGrf/sub06/qtm-04-02.trc
DataRate	CameraRate	NumFrames	NumMarkers	Units	OrigDataRate	OrigDataStartFrame	OrigNumFrames
250.000000	250.000000	14	24	m	250.000000	271	541
Frame#	Time	L.Toe.Tip			R.Toe.Tip			L.Ankle.Lat			R.Ankle.Lat			L.Ankle.Med			R.Ankle.Med			L.Heel			R.Heel			L.Knee.Lat			R.Knee.Lat			L.Knee.Med			R.Knee.Med			L.Thigh.Upper			R.Thigh.Upper			L.ASIS			R.ASIS			V.Sacral			L.Acromium			R.Acromium			C7			L.Elbow			R.Elbow			L.Wrist.Lat			R.Wrist.Lat
		X1	Y1	Z1	X2	Y2	Z2	X3	Y3	Z3	X4	Y4	Z4	X5	Y5	Z5	X6	Y6	Z6	X7	Y7	Z7	X8	Y8	Z8	X9	Y9	Z9	X10	Y10	Z10	X11	Y11	Z11	X12	Y12	Z12	X13	Y13	Z13	X14	Y14	Z14	X15	Y15	Z15	X16	Y16	Z16	X17	Y17	Z17	X18	Y18	Z18	X19	Y19	Z19	X20	Y20	Z20	X21	Y21	Z21	X22	Y22	Z22	X23	Y23	Z23	X24	Y24	Z24

271	1.08	0.085914543	-0.04020201	-0.021358848	0.80636037	0.1243644	0.15418892	-0.020973476	0.026560108	-0.041946329	0.67348224	0.089611216	0.16500155	-0.01143903	0.041610439	0.043759063	0.68851681	0.12575889	0.082977623	-0.095920162	0.022578639	0.0075934423	0.63975513	0.05083175	0.098042412	0.14204323	0.36332647	-0.061800406	0.5479671	0.4597487	0.18534386	0.13400941	0.36369896	0.059335667	0.53860295	0.43736946	0.057984941	0.2497937	0.72907846	-0.12694119	0.30620995	0.74099932	0.22221906	0.34037084	0.77049621	-0.09423855	0.3784915	0.79020127	0.14757012	0.17858663	0.8554586	0.05643667	0.33744522	1.260252	-0.14559015	0.31212489	1.2488174	0.21728929	0.25069698	1.2962284	0.028531116	0.36033927	0.93931199	-0.21750428	0.14574238	0.98274161	0.26347334	0.58443603	0.83842791	-0.15767072	0.17755696	0.75955374	0.34511285
272	1.084	0.086026913	-0.040188888	-0.021413778	0.81514674	0.12494185	0.15288432	-0.019963424	0.027605687	-0.042090521	0.68262264	0.088901068	0.16424021	-0.01003469	0.042631072	0.043682432	0.6970995	0.12502639	0.082028128	-0.094951574	0.024439283	0.007532417	0.64903924	0.049540565	0.09757903	0.14654368	0.36278461	-0.061754301	0.55530164	0.45843619	0.18445853	0.13927825	0.3630457	0.059429908	0.5454099	0.43579202	0.057131074	0.25528522	0.72785838	-0.12664964	0.3142191	0.73955574	0.22236224	0.34600788	0.76942375	-0.094230538	0.38585589	0.78893451	0.14732279	0.18570057	0.85435355	0.057248965	0.34419674	1.2590807	-0.14511941	0.31870645	1.247325	0.21787667	0.25745649	1.29509	0.029059082	0.36845019	0.93823139	-0.21690997	0.15225764	0.98128653	0.26379471	0.59283553	0.83839617	-0.15632725	0.18341225	0.75811413	0.34562406
273	1.088	0.086145783	-0.040185607	-0.021473975	0.82324188	0.12507934	0.15155509	-0.018894704	0.028700947	-0.042212268	0.69099465	0.087996291	0.16345807	-0.0085911105	0.043718284	0.043643812	0.70505841	0.12404597	0.081038733	-0.09392431	0.026410071	0.0074730464	0.65756146	0.048091795	0.097052282	0.15114435	0.36222599	-0.061708009	0.56263758	0.45722826	0.18357781	0.14459255	0.36241476	0.059545115	0.55222815	0.43445398	0.056302987	0.26085805	0.72659923	-0.12640435	0.32230184	0.738182	0.2224862	0.35186045	0.76836828	-0.094294748	0.393256	0.78769601	0.14705912	0.19284713	0.85327497	0.058053093	0.3509667	1.2579508	-0.14460061	0.3253622	1.2458636	0.21849107	0.26424935	1.293966	0.029637525	0.37656475	0.93710262	-0.21628222	0.15880599	0.97985515	0.2641393	0.60115059	0.83831111	-0.1550037	0.18928469	0.75666902	0.34613375
274	1.092	0.086258919	-0.040193542	-0.021530883	0.83068973	0.12471042	0.15020279	-0.017750101	0.02984189	-0.042305174	0.69863043	0.086880765	0.16266078	-0.0071531281	0.044838291	0.04360369	0.71241434	0.12279948	0.080060611	-0.092841427	0.028492891	0.0073728049	0.66532956	0.046495446	0.096475411	0.15586382	0.36164973	-0.06167374	0.5698982	0.45606856	0.18274024	0.14990563	0.36180846	0.059681979	0.5590427	0.43335428	0.055492852	0.26649632	0.72537946	-0.12600815	0.33038534	0.7368741	0.22256767	0.35785893	0.76732894	-0.094402604	0.40070486	0.78650564	0.14678323	0.19995543	0.85223498	0.058970007	0.35775592	1.2568706	-0.14404163	0.33209096	1.2444438	0.21913189	0.27107618	1.2928563	0.030268904	0.38478839	0.93594762	-0.21570253	0.16539059	0.97846052	0.26450276	0.60937733	0.83817027	-0.1537034	0.19518812	0.75522658	0.3466394
275	1.096	0.086362959	-0.04020259	-0.021577276	0.83754626	0.12377024	0.14883705	-0.01651135	0.031034637	-0.042393882	0.70559287	0.085524644	0.16184669	-0.0057356615	0.045958212	0.043506385	0.71918844	0.12127908	0.079114082	-0.091680446	0.030683785	0.0072153458	0.67236114	0.044749349	0.095867919	0.16071704	0.36106053	-0.061680176	0.57702315	0.45491156	0.1819517	0.15530294	0.36117	0.059802192	0.56583394	0.43247156	0.054695257	0.27219741	0.72425824	-0.12541684	0.3384333	0.73564435	0.22260507	0.36393851	0.76631788	-0.094528646	0.40822195	0.78538242	0.14650362	0.20704834	0.85122885	0.060031777	0.36456413	1.2558482	-0.14344231	0.33888597	1.2430751	0.21979946	0.27793988	1.2917646	0.030953051	0.39323855	0.93476137	-0.21523229	0.17205442	0.97709531	0.26488423	0.61751196	0.83797575	-0.15242685	0.20121166	0.75380239	0.3471448
276	1.1	0.086461529	-0.04020482	-0.021613806	0.8438651	0.12222525	0.14746862	-0.015169073	0.032288427	-0.042516255	0.71196567	0.08389547	0.16100812	-0.0043307228	0.047068593	0.043325834	0.72540429	0.11948396	0.078204698	-0.090395633	0.032987161	0.007040016	0.67868507	0.042840388	0.095246866	0.16570421	0.3604673	-0.061760458	0.58403235	0.45372518	0.18118237	0.16093271	0.36043475	0.059831842	0.57256261	0.43175693	0.053922732	0.27797319	0.72324135	-0.12473362	0.34647043	0.73453213	0.22261764	0.37007647	0.76534939	-0.094664546	0.4158248	0.78433702	0.14622419	0.21421791	0.85023721	0.061203522	0.37139085	1.2548893	-0.14279521	0.34574876	1.2417625	0.22049705	0.28484064	1.2906997	0.031691088	0.40196697	0.93353489	-0.21489237	0.17885375	0.97574532	0.26528671	0.62555087	0.83773718	-0.15117577	0.20747787	0.75241403	0.34765809
277	1.104	0.08655939	-0.040199337	-0.021646693	0.84968791	0.12008393	0.14609552	-0.013721984	0.03360496	-0.04268811	0.71780475	0.081987717	0.16014929	-0.0028805501	0.048198483	0.043079507	0.73107998	0.11741288	0.07733424	-0.088955463	0.035406713	0.0068899857	0.68433464	0.04075155	0.094628814	0.17081792	0.35987487	-0.061941044	0.59100201	0.45248534	0.18039749	0.16679593	0.35964253	0.059718596	0.57914677	0.43113731	0.053232026	0.28383764	0.72229943	-0.12405865	0.3545454	0.73358337	0.22262982	0.37627247	0.76442906	-0.094809182	0.42352438	0.78337192	0.14594476	0.22152335	0.84924714	0.062413081	0.37823753	1.253998	-0.14209655	0.35268779	1.2405068	0.22122919	0.29178108	1.2896725	0.03248223	0.41094141	0.9322751	-0.21466641	0.18580832	0.97441334	0.26571099	0.6334923	0.8374643	-0.14995373	0.21403172	0.7510702	0.34818442
278	1.108	0.086658455	-0.040189743	-0.021680868	0.85503555	0.11739942	0.14470129	-0.012168953	0.034976904	-0.042904936	0.7231288	0.079817294	0.15928535	-0.0012972451	0.049388853	0.042794641	0.73622266	0.11507137	0.076481538	-0.08735845	0.037935655	0.0067645565	0.68934173	0.038463352	0.094028375	0.17606954	0.35927727	-0.062212111	0.59797121	0.45117552	0.17958827	0.17275633	0.35889191	0.059472958	0.58546147	0.43052602	0.052727018	0.28979368	0.72139509	-0.12342077	0.36267512	0.73281487	0.22265858	0.38253229	0.76355608	-0.094961835	0.43131784	0.78248273	0.14566413	0.22888892	0.84827826	0.063550507	0.38511	1.2531777	-0.14134385	0.35970871	1.2393086	0.22199797	0.29876863	1.2886899	0.03332473	0.42008118	0.93100465	-0.21451946	0.19289653	0.97311651	0.26615475	0.64133689	0.83715882	-0.14876406	0.22083145	0.74977138	0.34872251
279	1.112	0.086757993	-0.040180688	-0.02171905	0.85989363	0.11427185	0.14326813	-0.010502509	0.036397427	-0.043163749	0.7279393	0.077395709	0.15842938	0.00046433078	0.050652733	0.04247603	0.74081095	0.11246056	0.075606741	-0.08561475	0.040565825	0.0066371747	0.69372668	0.035958813	0.093460844	0.18149728	0.35866007	-0.0625162	0.60491821	0.44979167	0.17875758	0.17878864	0.3581615	0.059150711	0.59141613	0.42984165	0.052477864	0.29583414	0.72049989	-0.12281355	0.37084174	0.7322064	0.22270984	0.38886275	0.76273142	-0.095119779	0.4391932	0.78166287	0.14538164	0.23617121	0.84736881	0.064507556	0.39201716	1.2524312	-0.14053132	0.36681214	1.2381689	0.22280339	0.30580686	1.2877527	0.034221918	0.42929486	0.92975254	-0.21441377	0.20009141	0.97186898	0.26661632	0.6490841	0.83681896	-0.14760938	0.22782535	0.74851663	0.34926788
280	1.116	0.086861265	-0.040174322	-0.021761433	0.86421426	0.11082952	0.14177603	-0.0087175753	0.037873739	-0.043470614	0.73223169	0.074722984	0.15759332	0.002394041	0.0519854	0.042120767	0.74478021	0.10955404	0.074684491	-0.083731177	0.043299663	0.0064925141	0.69745986	0.03327239	0.092960667	0.18713895	0.35800987	-0.062800222	0.61180677	0.4483456	0.17789991	0.18502539	0.35731277	0.058811383	0.59708775	0.42903433	0.0523958	0.30195231	0.71960506	-0.12223402	0.3790191	0.73171813	0.22277531	0.39527301	0.76195773	-0.095278866	0.44714378	0.78091151	0.14509804	0.2433375	0.84653135	0.065266665	0.39896484	1.2517577	-0.13965879	0.37399732	1.2370879	0.2236447	0.31289249	1.2868591	0.035180806	0.43849691	0.92854792	-0.21431477	0.20738024	0.97067715	0.26709646	0.65673058	0.83644895	-0.14648853	0.23498643	0.74730589	0.34981626
281	1.12	0.086986987	-0.040166828	-0.021800438	0.86795936	0.10717352	0.14018018	-0.0068459208	0.039444445	-0.043831759	0.73601858	0.071798462	0.15678357	0.0044690834	0.053388664	0.041734648	0.74807017	0.10631907	0.073704145	-0.081705426	0.046147228	0.0063368829	0.70044273	0.030572785	0.092574734	0.19300687	0.35732129	-0.06306531	0.61860695	0.44684936	0.17701334	0.19155463	0.35627401	0.058482338	0.60268757	0.4280838	0.052272886	0.30814766	0.71871757	-0.12167932	0.38719551	0.7313132	0.2228372	0.40177487	0.76123542	-0.095438041	0.45517074	0.78023453	0.14481576	0.25047894	0.84575136	0.065914527	0.4059537	1.2511532	-0.13873577	0.38126181	1.2360666	0.22451904	0.32002402	1.2860068	0.036204142	0.4476087	0.92741838	-0.21419082	0.21475873	0.9695456	0.26759693	0.66427381	0.83605619	-0.14539702	0.24230866	0.7461424	0.35036596
282	1.124	0.087173739	-0.040146568	-0.021817769	0.87117766	0.10329559	0.13842036	-0.0049814743	0.041183872	-0.044234219	0.73935095	0.068661903	0.15598553	0.0066724137	0.05485969	0.04131289	0.75074119	0.10278246	0.072621054	-0.079520446	0.049115074	0.0061826558	0.70262327	0.0281748	0.092283635	0.19908967	0.35659528	-0.063349714	0.6252738	0.44527488	0.17611715	0.19834465	0.35509629	0.058148526	0.60833752	0.42696218	0.051984518	0.31442624	0.71784496	-0.12113599	0.39538979	0.73097194	0.22288384	0.40837379	0.76056364	-0.095601607	0.46326786	0.77963621	0.14453972	0.25768564	0.84502022	0.066544202	0.41298367	1.2506147	-0.13776922	0.388606	1.235109	0.22542268	0.327202	1.2851924	0.037286763	0.4565548	0.92639044	-0.21401154	0.22221891	0.96848093	0.26811987	0.67171321	0.83564297	-0.14433354	0.24980007	0.74503402	0.35091981
283	1.128	0.087457546	-0.040100178	-0.021799584	0.87410012	0.098998939	0.13651282	-0.0032164722	0.043148147	-0.044643059	0.74232412	0.065474464	0.15516678	0.0089991884	0.056383977	0.040834678	0.75310043	0.099098445	0.07135421	-0.077147453	0.052202651	0.0060336179	0.70420642	0.02643871	0.091905965	0.20537077	0.35583558	-0.06368297	0.63173834	0.44353636	0.1752585	0.20533346	0.35385939	0.057777469	0.61397463	0.42561276	0.051563448	0.32079971	0.71698828	-0.12058268	0.40364834	0.7306898	0.22292248	0.41506406	0.75994145	-0.095772105	0.4713981	0.77911056	0.14427289	0.2649972	0.84434831	0.067179499	0.42005577	1.2501432	-0.13675763	0.39603905	1.2342194	0.22635424	0.33441902	1.2844161	0.038418397	0.46526075	0.92549	-0.21374679	0.22975529	0.96748943	0.26866558	0.67904793	0.83520731	-0.14330248	0.2574682	0.74398716	0.35148211
284	1.132	0.087827415	-0.040027523	-0.021763399	0.87721684	0.093902637	0.13468906	-0.0015065594	0.04529088	-0.045037389	0.74511876	0.062575852	0.1543071	0.01147962	0.057954229	0.040289364	0.75574151	0.095571665	0.069911752	-0.074557536	0.055405688	0.0058813567	0.70567579	0.025667709	0.091191555	0.21184512	0.35504782	-0.064067053	0.63795541	0.44154612	0.17450641	0.21248299	0.35260822	0.057349028	0.61946438	0.42396471	0.051105049	0.32728351	0.71614995	-0.11999694	0.41202201	0.73046925	0.22298219	0.42184212	0.75936749	-0.095940615	0.47949601	0.77864606	0.14401562	0.27242246	0.84376201	0.067792076	0.42716751	1.2497428	-0.13569993	0.403572	1.2333947	0.22731338	0.34166112	1.2836865	0.039591911	0.47365263	0.92474227	-0.21336659	0.23739663	0.9665727	0.26922394	0.68627694	0.83474994	-0.14230944	0.26530775	0.74300101	0.35205308
